%
M48
M72
T01C0.0140
T02C0.0300
T03C0.0394
T04C0.0433
T05C0.1181
T06C0.1260
%
T01
X27450Y4987
T02
X26150Y4937
X25750Y5437
X26150Y5937
X25750Y6437
X22450Y5937
X22050Y6437
X22050Y5437
X22450Y4937
X18850Y4937
X18450Y5437
X18850Y5937
X18450Y6437
X13077Y5976
X12677Y5476
X13077Y4976
X9485Y4976
X9085Y5476
X9485Y5976
X9085Y6476
X5789Y5919
X5389Y6419
X5389Y5419
X5789Y4919
X2110Y4937
X1710Y5437
X2110Y5937
X1710Y6437
X12677Y6476
X29350Y6437
X29750Y5937
X29350Y5437
X29750Y4937
T03
X30750Y5187
X30750Y6187
X30750Y7187
X30750Y8187
X30750Y9187
X30750Y10187
X30750Y4187
X30750Y3187
X30750Y2187
X30750Y1187
X750Y1187
X750Y2187
X750Y3187
X750Y4187
X750Y5187
X750Y6187
X750Y7187
X750Y8187
X750Y9187
X750Y10187
T04
X3033Y718
X6671Y718
X10309Y718
X13951Y718
X17589Y718
X21230Y718
X24848Y718
X28470Y718
X28470Y4065
X28470Y5246
X28470Y6128
X28470Y7309
X24848Y7309
X24848Y6128
X24848Y5246
X24848Y4065
X21230Y4065
X21230Y5246
X21230Y6128
X21230Y7309
X17589Y7309
X17589Y6128
X17589Y5246
X17589Y4065
X13951Y4065
X13951Y5246
X13951Y6128
X13951Y7309
X10309Y7309
X10309Y6128
X10309Y5246
X10309Y4065
X6671Y4065
X6671Y5246
X6671Y6128
X6671Y7309
X3033Y7309
X3033Y6128
X3033Y5246
X3033Y4065
X3033Y10655
X6671Y10655
X10309Y10655
X13951Y10655
X17589Y10655
X21230Y10655
X24848Y10655
X28470Y10655
T05
X28470Y8687
X24848Y8687
X21230Y8687
X17589Y8687
X13951Y8687
X10309Y8687
X6671Y8687
X3033Y8687
X3033Y2687
X6671Y2687
X10309Y2687
X13951Y2687
X17589Y2687
X21230Y2687
X24848Y2687
X28470Y2687
T06
X15750Y5687
M30
